<?xml version="1.0" encoding="UTF-8" standalone="no"?>
<!-- Copyright 2017 mathsisfun.com -->
<svg xmlns="http://www.w3.org/2000/svg" width="375.7" height="190.1" version="1.1">
<defs>
<marker id="id1" style="overflow:visible;" orient="auto">
<path transform="matrix(-0.4,0,0,-0.4,-4,0)" style="stroke:black; stroke-width:1pt;" d="M 0,0 5,-5 -12.5,0 5,5 Z"/>
</marker>
</defs>
<rect x="0" y="0" width="375.7" height="190.1" style="color:black; overflow:visible; fill:white; stroke-width:1.86; stroke-linecap:round;"/>
<g transform="matrix(0.5,0,0,0.5,-340.283,-1504.21)">
<g transform="matrix(0.844857,0,0,0.844857,632.596,2555.27)">
<g transform="translate(-853.459,49.8897)">
<path style="fill:none; stroke:#d8dadc; stroke-width:2.37; stroke-dasharray:18.9, 2.4;" d="m 924.1,601.7 h 526.7"/>
<path style="fill:none; stroke:#d8dadc; stroke-width:2.37; stroke-dasharray:18.9, 2.4;" d="m 924.1,535.6 h 526.7"/>
<path style="fill:none; stroke:#d8dadc; stroke-width:2.37; stroke-dasharray:18.9, 2.4;" d="m 924.1,469.4 h 526.7"/>
<path style="fill:none; stroke:#d8dadc; stroke-width:2.37; stroke-dasharray:18.9, 2.4;" d="m 924.1,403.3 h 526.7"/>
<path style="fill:none; stroke:#d8dadc; stroke-width:2.37; stroke-dasharray:18.9, 2.4;" d="m 924.1,932.5 h 526.7"/>
<path style="fill:none; stroke:#d8dadc; stroke-width:2.37; stroke-dasharray:18.9, 2.4;" d="m 924.1,800.2 h 526.7"/>
<path style="fill:none; stroke:#d8dadc; stroke-width:2.37; stroke-dasharray:18.9, 2.4;" d="m 924.1,734 h 526.7"/>
<path style="fill:none; stroke:#d8dadc; stroke-width:2.37; stroke-dasharray:18.9, 2.4;" d="m 924.1,667.9 h 526.7"/>
<path style="fill:none; stroke:#d8dadc; stroke-width:2.37; stroke-dasharray:18.9, 2.4;" d="m 926.5,866.3 h 526.7"/>
</g>
<g transform="rotate(-90,786.875,1119.55)">
<path style="fill:none; stroke:#d8dadc; stroke-width:2.37; stroke-dasharray:18.9, 2.4;" d="m 924.1,601.7 h 526.7"/>
<path style="fill:none; stroke:#d8dadc; stroke-width:2.37; stroke-dasharray:18.9, 2.4;" d="m 924.1,535.6 h 526.7"/>
<path style="fill:none; stroke:#d8dadc; stroke-width:2.37; stroke-dasharray:18.9, 2.4;" d="m 924.1,469.4 h 526.7"/>
<path style="fill:none; stroke:#d8dadc; stroke-width:2.37; stroke-dasharray:18.9, 2.4;" d="m 924.1,403.3 h 526.7"/>
<path style="fill:none; stroke:#d8dadc; stroke-width:2.37; stroke-dasharray:18.9, 2.4;" d="m 924.1,932.5 h 526.7"/>
<path style="fill:none; stroke:#d8dadc; stroke-width:2.37; stroke-dasharray:18.9, 2.4;" d="m 924.1,800.2 h 526.7"/>
<path style="fill:none; stroke:#d8dadc; stroke-width:2.37; stroke-dasharray:18.9, 2.4;" d="m 924.1,734 h 526.7"/>
<path style="fill:none; stroke:#d8dadc; stroke-width:2.37; stroke-dasharray:18.9, 2.4;" d="m 924.1,667.9 h 526.7"/>
<path style="fill:none; stroke:#d8dadc; stroke-width:2.37; stroke-dasharray:18.9, 2.4;" d="m 926.5,866.3 h 526.7"/>
</g>
</g>
<g transform="matrix(0.844857,0,0,0.844857,1079.49,2555.27)">
<g transform="translate(-853.459,49.8897)">
<path style="fill:none; stroke:#d8dadc; stroke-width:2.37; stroke-dasharray:18.9, 2.4;" d="m 924.1,601.7 h 526.7"/>
<path style="fill:none; stroke:#d8dadc; stroke-width:2.37; stroke-dasharray:18.9, 2.4;" d="m 924.1,535.6 h 526.7"/>
<path style="fill:none; stroke:#d8dadc; stroke-width:2.37; stroke-dasharray:18.9, 2.4;" d="m 924.1,469.4 h 526.7"/>
<path style="fill:none; stroke:#d8dadc; stroke-width:2.37; stroke-dasharray:18.9, 2.4;" d="m 924.1,403.3 h 526.7"/>
<path style="fill:none; stroke:#d8dadc; stroke-width:2.37; stroke-dasharray:18.9, 2.4;" d="m 924.1,932.5 h 526.7"/>
<path style="fill:none; stroke:#d8dadc; stroke-width:2.37; stroke-dasharray:18.9, 2.4;" d="m 924.1,800.2 h 526.7"/>
<path style="fill:none; stroke:#d8dadc; stroke-width:2.37; stroke-dasharray:18.9, 2.4;" d="m 924.1,734 h 526.7"/>
<path style="fill:none; stroke:#d8dadc; stroke-width:2.37; stroke-dasharray:18.9, 2.4;" d="m 924.1,667.9 h 526.7"/>
<path style="fill:none; stroke:#d8dadc; stroke-width:2.37; stroke-dasharray:18.9, 2.4;" d="m 926.5,866.3 h 526.7"/>
</g>
<g transform="rotate(-90,786.875,1119.55)">
<path style="fill:none; stroke:#d8dadc; stroke-width:2.37; stroke-dasharray:18.9, 2.4;" d="m 924.1,601.7 h 526.7"/>
<path style="fill:none; stroke:#d8dadc; stroke-width:2.37; stroke-dasharray:18.9, 2.4;" d="m 924.1,535.6 h 526.7"/>
<path style="fill:none; stroke:#d8dadc; stroke-width:2.37; stroke-dasharray:18.9, 2.4;" d="m 924.1,469.4 h 526.7"/>
<path style="fill:none; stroke:#d8dadc; stroke-width:2.37; stroke-dasharray:18.9, 2.4;" d="m 924.1,403.3 h 526.7"/>
<path style="fill:none; stroke:#d8dadc; stroke-width:2.37; stroke-dasharray:18.9, 2.4;" d="m 924.1,932.5 h 526.7"/>
<path style="fill:none; stroke:#d8dadc; stroke-width:2.37; stroke-dasharray:18.9, 2.4;" d="m 924.1,800.2 h 526.7"/>
<path style="fill:none; stroke:#d8dadc; stroke-width:2.37; stroke-dasharray:18.9, 2.4;" d="m 924.1,734 h 526.7"/>
<path style="fill:none; stroke:#d8dadc; stroke-width:2.37; stroke-dasharray:18.9, 2.4;" d="m 924.1,667.9 h 526.7"/>
<path style="fill:none; stroke:#d8dadc; stroke-width:2.37; stroke-dasharray:18.9, 2.4;" d="m 926.5,866.3 h 526.7"/>
</g>
</g>
</g>
<path style="marker-end:url(#id1); fill:#2e3436; fill-opacity:0.75; stroke:#2e3436; stroke-width:1.5;" d="m -17.1,161.7 h 354.6"/>
<path style="marker-end:url(#id1); fill:#2e3436; fill-opacity:0.75; stroke:#2e3436; stroke-width:1.5;" d="M 61.4,268.5 V 9.6"/>
<text x="313.4" y="182.4" style="font-family:'Comic Sans MS'; font-weight:bold; font-size:28px; font-style:italic; overflow:visible; fill:black; stroke-width:0.5px;">x</text>
<text x="40.5" y="22.2" style="font-family:'Comic Sans MS'; font-weight:bold; font-size:28px; font-style:italic; overflow:visible; fill:black; stroke-width:0.5px;">y</text>
<text x="20.4" y="109.1" style="font-family:'Comic Sans MS'; font-size:18.1px; overflow:visible; fill:#0197fd; stroke-width:1.1;">f(x)</text>
<path style="overflow:visible; fill:none; stroke:#0197fd; stroke-width:2.5; stroke-linecap:round;" d="m 8.6,151.8 c 0,0 73,-67.9 101.6,-65.5 28.6,2.4 24.5,33.2 45.3,32 20.8,-1.1 51.2,-56.6 66.7,-58 15.5,-1.4 13.4,10.1 27.4,39.3 7,14.6 12.3,18.4 40.3,18.8 28,0.4 44.5,18.7 44.5,18.7"/>
<circle cx="109.4" cy="85.9" r="2.69149" style="overflow:visible; fill:#f0a513; stroke:#fdca01; stroke-width:2.25;"/>
<circle cx="223.9" cy="60.7" r="2.69149" style="overflow:visible; fill:#f0a513; stroke:#fdca01; stroke-width:2.25;"/>
<circle cx="154" cy="118.5" r="2.69149" style="overflow:visible; fill:#0169c9; stroke:#0169c9; stroke-width:2.25;"/>
<text x="178.1" y="152.6" style="font-family:'Comic Sans MS'; font-size:18.1px; overflow:visible; fill:#0169c9; stroke-width:1.1;">Local Minimum</text>
<g transform="matrix(0.012109,0.499758,0.389472,-0.015538,-1441.36,497.01)">
<path style="overflow:visible; fill:#0169c9; stroke-width:2.2;" d="m -610.7,4119.1 c 6.1,-0.5 12.2,0.9 17.9,2.9 4.4,1.8 8.4,4.5 11.6,8 3.7,4 6.3,8.9 9,13.6 1.7,3.5 3.7,6.9 4.6,10.8 0.7,2.5 1.5,4.9 2.1,7.4 -2.3,1.4 -4.6,2.9 -6.9,4.3 -0.8,-3.7 -2.1,-7.3 -3,-11 -2.5,-5.7 -5.5,-11.2 -9,-16.4 -3.3,-4.7 -8,-8.5 -13.5,-10.2 -4.8,-1.4 -9.9,-2.9 -14.9,-1.7 -0.8,0.2 0.4,-1.8 0.4,-2.5 0.6,-1.7 1,-3.5 1.7,-5.2 z"/>
<path style="overflow:visible; fill:#0169c9; stroke-width:2.2;" d="m -609.8,4114.8 c 3.5,-1.5 7.2,-2.4 10.4,-4.5 3.9,-2.3 7.8,-4.6 11.4,-7.3 -0.4,2.7 -0.9,5.3 -1.3,8 -4.3,2.8 -8.6,5.6 -13.2,7.8 -3.3,1.2 -6.5,2.8 -10,3.3 -1.4,0.1 0.3,-1.6 0.4,-2.4 0.8,-1.7 1.6,-3.3 2.4,-4.9 z"/>
<path style="overflow:visible; fill:#0169c9; stroke-width:2.2;" d="m -607.9,4118 c 3,2.2 4.1,6.1 5.1,9.5 0.8,4.2 2.1,8.3 2.1,12.6 -2.4,1.2 -4.9,2.5 -7.3,3.7 0,-3.2 -0,-6.5 -0.8,-9.6 -0.8,-3.4 -1.3,-7 -3.4,-9.8 -0.8,-0.7 1,-1.7 1.3,-2.5 1.1,-1.4 2.2,-2.8 3.3,-4.2 -0.1,0.1 -0.2,0.2 -0.3,0.3 z"/>
</g>
<g transform="rotate(20.69,114.853,94.6122)">
<path style="overflow:visible; fill:#f0a513; stroke-width:1.1;" d="m 104,44 c -0.6,2.6 -1.7,5.1 -2.2,7.7 -1.2,5.6 -1.5,11.6 0,17.2 0.5,1.9 0.9,3.7 1.4,5.6 -1.2,0.7 -2.4,1.4 -3.5,2.2 -0.7,-2.8 -1.4,-5.7 -2,-8.6 -1.1,-6.3 -0.3,-12.8 1.2,-19 0.4,-1.3 0.6,-2.8 1.3,-3.9 1.2,-0.4 2.4,-0.9 3.6,-1.2 z"/>
<path style="overflow:visible; fill:#f0a513; stroke-width:1.1;" d="m 91.7,65.1 c 4.7,2.4 8.6,6.3 11.6,10.7 0.4,0.5 1.3,1.9 1.3,1.9 -1.4,-0.6 -1.8,1.7 -2.8,2.4 -1,-0.3 -0.5,-2.2 -0.7,-3.1 0,-2.4 1,-4.6 1.8,-6.7 0.7,-1.7 1.4,-3.4 2.3,-5 1.3,-0.3 2.7,-0.5 4,-0.8 -1.7,2.7 -2.9,5.7 -3.9,8.7 -0.6,1.5 -0.7,3.2 -0.3,4.8 0,1.4 -1.1,2.8 -2.5,3.1 -1.4,-0.4 -1.8,-2.1 -2.7,-3.1 -2.6,-3.9 -6,-7.4 -10.2,-9.4 -0.2,-0.3 0.5,-0.9 0.7,-1.3 0.4,-0.7 1,-1.5 1.3,-2.1 z"/>
</g>
<path style="fill:none; stroke:#ef2929; stroke-width:2.5; stroke-dasharray:2.5, 2.5;" d="m 77.6,86.3 h 60.2"/>
<path style="color:black; overflow:visible; fill:none; stroke:#ef2929; stroke-width:2.5; stroke-dasharray:2.5, 2.5;" d="m 122.5,118.8 h 60.2"/>
<path style="color:black; overflow:visible; fill:none; stroke:#ef2929; stroke-width:2.5; stroke-dasharray:2.5, 2.5;" d="m 192.5,60.6 h 60.2"/>
<circle cx="286.2" cy="118.7" r="2.69149" style="overflow:visible; fill:#009100; stroke:#009100; stroke-width:2.25;"/>
<path style="color:black; overflow:visible; fill:none; stroke:#ef2929; stroke-width:2.5; stroke-dasharray:2.5, 2.5;" d="m 255.8,118.4 h 60.2"/>
<text x="266.5" y="107.6" style="font-family:'Comic Sans MS'; font-size:18.1px; overflow:visible; fill:#009100; stroke-width:1.1;">Saddle Point</text>
<text x="110.6" y="38.7" style="font-family:'Comic Sans MS'; font-size:18.1px; overflow:visible; fill:#f0a513; stroke-width:1.1;">Maximum</text>
<text x="128.7" y="22.1" style="font-family:'Comic Sans MS'; font-size:18.1px; overflow:visible; fill:#f0a513; stroke-width:1.1;">Local</text>
<g transform="matrix(-0.607594,0.794248,0.794248,0.607594,219.417,-75.0976)">
<path style="overflow:visible; fill:#f0a513; stroke-width:1.1;" d="m 104,44 c -0.6,2.6 -1.7,5.1 -2.2,7.7 -1.2,5.6 -1.5,11.6 0,17.2 0.5,1.9 0.9,3.7 1.4,5.6 -1.2,0.7 -2.4,1.4 -3.5,2.2 -0.7,-2.8 -1.4,-5.7 -2,-8.6 -1.1,-6.3 -0.3,-12.8 1.2,-19 0.4,-1.3 0.6,-2.8 1.3,-3.9 1.2,-0.4 2.4,-0.9 3.6,-1.2 z"/>
<path style="overflow:visible; fill:#f0a513; stroke-width:1.1;" d="m 91.7,65.1 c 4.7,2.4 8.6,6.3 11.6,10.7 0.4,0.5 1.3,1.9 1.3,1.9 -1.4,-0.6 -1.8,1.7 -2.8,2.4 -1,-0.3 -0.5,-2.2 -0.7,-3.1 0,-2.4 1,-4.6 1.8,-6.7 0.7,-1.7 1.4,-3.4 2.3,-5 1.3,-0.3 2.7,-0.5 4,-0.8 -1.7,2.7 -2.9,5.7 -3.9,8.7 -0.6,1.5 -0.7,3.2 -0.3,4.8 0,1.4 -1.1,2.8 -2.5,3.1 -1.4,-0.4 -1.8,-2.1 -2.7,-3.1 -2.6,-3.9 -6,-7.4 -10.2,-9.4 -0.2,-0.3 0.5,-0.9 0.7,-1.3 0.4,-0.7 1,-1.5 1.3,-2.1 z"/>
</g>
</svg>
